<svg width="512" height="512" viewBox="0 0 512 512" fill="none" xmlns="http://www.w3.org/2000/svg">
<g clip-path="url(#clip0_5_16)">
<rect x="2.5" y="2.5" width="507" height="507" rx="77.5" fill="#95EFA8" stroke="#19AA5C" stroke-width="5"/>
<path d="M149 250C194.287 250 231 213.287 231 168C231 122.713 194.287 86 149 86C103.713 86 67 122.713 67 168C67 213.287 103.713 250 149 250Z" fill="#FF0000"/>
<path d="M149 65C128.5 65 108 75.3333 108 96C108 116.667 128.5 127 149 127C169.5 127 190 116.667 190 96C190 75.3333 169.5 65 149 65Z" fill="#228B22"/>
<path d="M273 416C318.84 416 356 378.84 356 333C356 287.16 318.84 250 273 250C227.16 250 190 287.16 190 333C190 378.84 227.16 416 273 416Z" fill="#FFA500"/>
<path d="M273 395C307.242 395 335 367.242 335 333C335 298.758 307.242 271 273 271C238.758 271 211 298.758 211 333C211 367.242 238.758 395 273 395Z" fill="#FF8C00"/>
<path d="M294.556 131.783C347.254 125.46 436.221 194.969 442.835 247.631C449.448 300.294 367.094 283.447 360.481 230.785C353.867 178.122 241.857 138.106 294.556 131.783Z" fill="#FFD700"/>
<path d="M293.297 144.951C319.651 141.823 408.734 211.423 400.568 252.478C392.402 293.532 347.861 258.733 356.026 217.678C364.192 176.623 266.944 148.079 293.297 144.951Z" fill="#FFC107"/>
</g>
<defs>
<clipPath id="clip0_5_16">
<rect width="512" height="512" fill="white"/>
</clipPath>
</defs>
</svg>
